<?xml version="1.0" encoding="utf-8"?>
<!-- Generator: Adobe Illustrator 21.1.0, SVG Export Plug-In . SVG Version: 6.00 Build 0)  -->
<svg version="1.1" id="Layer_1" xmlns="http://www.w3.org/2000/svg" xmlns:xlink="http://www.w3.org/1999/xlink" x="0px" y="0px"
	 viewBox="0 0 328 167.9" style="enable-background:new 0 0 328 167.9;" xml:space="preserve">
<style type="text/css">
	.st0{fill:#CEE4C8;}
</style>
<g>
	<g>
		<path class="st0" d="M92.5,0c9.3,0,18.4,1.1,27.3,3.2s18.5,5.7,28.8,10.8v29.8c-10.1-5.8-19.4-10-27.9-12.5s-17.5-3.9-26.8-3.9
			c-11.6,0-22.1,2.4-31.5,7.2S45.7,46.1,40.5,54.8c-5.2,8.8-7.8,18.5-7.8,29.2c0,10.9,2.6,20.7,7.7,29.4s12.4,15.4,21.8,20.1
			s19.9,7.1,31.6,7.1c9,0,17.6-1.3,25.7-3.9c8.2-2.6,18.5-7.2,30.9-13.9v29.8c-10.6,5.5-20.4,9.5-29.3,11.8s-19.3,3.5-31.2,3.5
			c-17.3,0-32.7-3.4-46.3-10.3c-13.6-6.9-24.3-16.8-32.1-29.7C3.9,115,0,100.8,0,85.4C0,68.9,4,54.1,12,41s19-23.2,33-30.4
			C59.1,3.6,74.9,0,92.5,0z"/>
		<path class="st0" d="M221.1,54.8v111.6h-21.5V54.8H221.1z"/>
		<path class="st0" d="M291.7,53.4c10.8,0,21.3,2.7,31.4,8.2v19.2c-11.6-7-21.8-10.5-30.8-10.5c-5.5,0-9.7,1-12.8,3.1
			s-4.6,4.9-4.6,8.5c0,4.2,2.9,8.1,8.5,11.7c1.6,1.1,7.8,4,18.5,8.9c9.1,4.3,15.8,9.1,19.8,14.4c4,5.3,6.1,11.6,6.1,19
			c0,9.6-3.5,17.3-10.4,23.2s-15.8,8.8-26.8,8.8c-7.2,0-13.3-0.8-18.4-2.4c-5.1-1.6-10.9-4.3-17.3-8.1V136
			c11.9,9.9,23.2,14.9,33.8,14.9c5.3,0,9.5-1.2,12.8-3.4c3.3-2.3,4.8-5.3,4.8-9.1c0-5.2-2.8-9.3-8.5-12.6
			c-4.7-2.6-10.7-5.6-18.1-9.2c-8.8-4-15.3-8.7-19.7-14c-4.4-5.3-6.5-11.5-6.5-18.5c0-9.3,3.5-16.8,10.5-22.4
			C271.1,56.2,280.3,53.4,291.7,53.4z"/>
	</g>
</g>
</svg>
