<?xml version="1.0" encoding="UTF-8"?>
<svg width="342px" height="405px" viewBox="0 0 342 405" version="1.1" xmlns="http://www.w3.org/2000/svg" xmlns:xlink="http://www.w3.org/1999/xlink">
    <!-- Generator: Sketch 51.1 (57501) - http://www.bohemiancoding.com/sketch -->
    <title>Shape</title>
    <desc>Created with Sketch.</desc>
    <defs>
        <path d="M373,193.398363 C373,309.28967 297.237202,372.99955 178.064369,372.99955 C56.6391282,373.201803 -31,305.244598 -31,185.914981 C-31,143.846234 -9.49974658,74.4732535 70.9726305,49.5960622 C39.4389255,51.8208517 -27.3142423,66.5853636 -27.3142423,66.5853636 L-27.3142423,41.3036651 L96.9776989,36.0450718 L96.9776989,46.5622584 L96.9776989,59.3042344 C38.2103396,83.3724114 -1.30917385,112.294675 -1.30917385,172.566244 C-1.30917385,263.175851 102.301571,298.772483 177.450076,298.772483 C258.536746,298.772483 342.080588,262.164583 343.309174,169.127933 C344.53776,101.777488 292.322859,66.1808564 230.074506,55.6636698 L230.074506,32 L363.376077,32 L363.376077,77.9115645 C363.376077,77.9115645 317.304105,50.0005694 268.570198,47.5735263 C358.256969,61.9335311 373,147.891306 373,193.398363 Z" id="path-1"></path>
    </defs>
    <g id="Page-1" stroke="none" stroke-width="1" fill="none" fill-rule="evenodd">
        <g id="Home" transform="translate(-203.000000, -1763.000000)">
            <g id="_DSF8162" transform="translate(203.000000, 1763.000000)">
                <mask id="mask-2" fill="white">
                    <use xlink:href="#path-1"></use>
                </mask>
                <use id="Shape" fill="#3B3B3B" fill-rule="nonzero" transform="translate(171.000000, 202.500000) rotate(90.000000) translate(-171.000000, -202.500000) " xlink:href="#path-1"></use>
            </g>
        </g>
    </g>
</svg>