<?xml version="1.0" encoding="utf-8"?>
<!-- Generator: Adobe Illustrator 21.1.0, SVG Export Plug-In . SVG Version: 6.00 Build 0)  -->
<svg version="1.1" id="Warstwa_1" xmlns="http://www.w3.org/2000/svg" xmlns:xlink="http://www.w3.org/1999/xlink" x="0px" y="0px"
   width="31px" height="31px" viewBox="0 0 31 31" enable-background="new 0 0 31 31" xml:space="preserve">
<path fill-rule="evenodd" clip-rule="evenodd" d="M16.7,23.3h-3.3v-7.8h-1.7v-2.7h1.7v-1.6c0-2.2,0.9-3.5,3.6-3.5h2.2v2.7h-1.4
  c-1,0-1.1,0.4-1.1,1.1l0,1.4h2.5L19,15.5h-2.2L16.7,23.3L16.7,23.3z"/>
<circle fill="none" stroke="#000000" stroke-miterlimit="10" cx="15.5" cy="15.5" r="15"/>
<g>
  <defs>
    <rect id="SVGID_1_" x="-685" y="-497" width="1440" height="1024"/>
  </defs>
  <clipPath id="SVGID_2_">
    <use xlink:href="#SVGID_1_"  overflow="visible"/>
  </clipPath>
  <g opacity="0.5" clip-path="url(#SVGID_2_)" enable-background="new    ">
    <g>
      <defs>
        <rect id="SVGID_3_" x="-208" y="368" width="30" height="30"/>
      </defs>
      <clipPath id="SVGID_4_">
        <use xlink:href="#SVGID_3_"  overflow="visible"/>
      </clipPath>
      <g clip-path="url(#SVGID_4_)">
        <defs>
          <circle id="SVGID_5_" cx="-193" cy="383" r="15"/>
        </defs>
        <clipPath id="SVGID_6_">
          <use xlink:href="#SVGID_5_"  overflow="visible"/>
        </clipPath>
        <g clip-path="url(#SVGID_6_)">
          <defs>
            <rect id="SVGID_7_" x="-208" y="368" width="30" height="30"/>
          </defs>
          <clipPath id="SVGID_8_">
            <use xlink:href="#SVGID_7_"  overflow="visible"/>
          </clipPath>
          
            <circle clip-path="url(#SVGID_8_)" fill="none" stroke="#FFFFFF" stroke-width="2" stroke-miterlimit="10" cx="-193" cy="383" r="15"/>
        </g>
      </g>
      <g clip-path="url(#SVGID_4_)">
        <defs>
          <path id="SVGID_9_" d="M-188.1,379c0-0.5-0.4-0.9-0.9-0.9s-0.9,0.4-0.9,0.9c0,0.5,0.4,0.9,0.9,0.9S-188.1,379.5-188.1,379z
             M-193,385.5c-1.4,0-2.5-1.1-2.5-2.5c0-1.4,1.1-2.5,2.5-2.5s2.5,1.1,2.5,2.5C-190.5,384.4-191.6,385.5-193,385.5z M-193,379.2
            c-2.1,0-3.9,1.7-3.9,3.9c0,2.1,1.7,3.9,3.9,3.9s3.9-1.7,3.9-3.9C-189.1,380.9-190.9,379.2-193,379.2z M-193,375.5
            c2,0,2.3,0,3.1,0c0.8,0,1.3,0.2,1.8,0.3c0.5,0.2,0.9,0.4,1.3,0.9s0.7,0.8,0.9,1.3c0.2,0.5,0.3,1,0.3,1.8c0,0.8,0,1.1,0,3.1
            c0,2,0,2.3,0,3.1c0,0.8-0.2,1.3-0.3,1.8c-0.2,0.5-0.4,0.9-0.9,1.3c-0.4,0.4-0.8,0.7-1.3,0.9c-0.5,0.2-1,0.3-1.8,0.3
            c-0.8,0-1.1,0-3.1,0s-2.3,0-3.1,0c-0.8,0-1.3-0.2-1.8-0.3c-0.5-0.2-0.9-0.4-1.3-0.9c-0.4-0.4-0.7-0.8-0.9-1.3
            c-0.2-0.5-0.3-1-0.3-1.8c0-0.8,0-1.1,0-3.1c0-2,0-2.3,0-3.1c0-0.8,0.2-1.3,0.3-1.8c0.2-0.5,0.4-0.9,0.9-1.3s0.8-0.7,1.3-0.9
            c0.5-0.2,1-0.3,1.8-0.3C-195.3,375.5-195,375.5-193,375.5z M-193,376.9c2,0,2.2,0,3,0c0.7,0,1.1,0.2,1.4,0.3
            c0.4,0.1,0.6,0.3,0.9,0.6c0.3,0.3,0.4,0.5,0.6,0.9c0.1,0.3,0.2,0.7,0.3,1.4c0,0.8,0,1,0,3c0,2,0,2.2,0,3c0,0.7-0.2,1.1-0.3,1.4
            c-0.1,0.4-0.3,0.6-0.6,0.9c-0.3,0.3-0.5,0.4-0.9,0.6c-0.3,0.1-0.7,0.2-1.4,0.3c-0.8,0-1,0-3,0s-2.2,0-3,0
            c-0.7,0-1.1-0.2-1.4-0.3c-0.4-0.1-0.6-0.3-0.9-0.6c-0.3-0.3-0.4-0.5-0.6-0.9c-0.1-0.3-0.2-0.7-0.3-1.4c0-0.8,0-1,0-3
            c0-2,0-2.2,0-3c0-0.7,0.2-1.1,0.3-1.4c0.1-0.4,0.3-0.6,0.6-0.9s0.5-0.4,0.9-0.6c0.3-0.1,0.7-0.2,1.4-0.3
            C-195.2,376.9-195,376.9-193,376.9"/>
        </defs>
        <clipPath id="SVGID_10_">
          <use xlink:href="#SVGID_9_"  overflow="visible"/>
        </clipPath>
        <g clip-path="url(#SVGID_10_)">
          <defs>
            <rect id="SVGID_11_" x="-208" y="368" width="30" height="30"/>
          </defs>
          <clipPath id="SVGID_12_">
            <use xlink:href="#SVGID_11_"  overflow="visible"/>
          </clipPath>
          <rect x="-205.5" y="370.5" clip-path="url(#SVGID_12_)" fill="#FFFFFF" width="25" height="25"/>
        </g>
      </g>
    </g>
  </g>
</g>
</svg>
