<?xml version="1.0" encoding="utf-8"?>
<!-- Generator: Adobe Illustrator 21.1.0, SVG Export Plug-In . SVG Version: 6.00 Build 0)  -->
<svg version="1.1" id="Layer_1" xmlns="http://www.w3.org/2000/svg" xmlns:xlink="http://www.w3.org/1999/xlink" x="0px" y="0px"
	 viewBox="0 0 197.3 168.7" style="enable-background:new 0 0 197.3 168.7;" xml:space="preserve">
<g>
	<g>
		<path d="M197.3,79.8c0,57.3-37,88.8-95.2,88.8C42.8,168.7,0,135.1,0,76.1C0,55.3,10.5,21,49.8,8.7c-15.4,1.1-48,8.4-48,8.4V4.6
			L62.5,2v5.2v6.3c-28.7,11.9-48,26.2-48,56c0,44.8,50.6,62.4,87.3,62.4c39.6,0,80.4-18.1,81-64.1c0.6-33.3-24.9-50.9-55.3-56.1V0
			h65.1v22.7c0,0-22.5-13.8-46.3-15C190.1,14.8,197.3,57.3,197.3,79.8z"/>
	</g>
</g>
</svg>
