<?xml version="1.0" encoding="utf-8"?>
<!-- Generator: Adobe Illustrator 21.1.0, SVG Export Plug-In . SVG Version: 6.00 Build 0)  -->
<svg version="1.1" id="Layer_1" xmlns="http://www.w3.org/2000/svg" xmlns:xlink="http://www.w3.org/1999/xlink" x="0px" y="0px"
	 viewBox="0 0 278.5 158.2" style="enable-background:new 0 0 278.5 158.2;" xml:space="preserve">
<style type="text/css">
	.st0{fill:#CEE4C8;}
</style>
<path class="st0" d="M192.4,63.3c5.5,0,10-4.9,10-10.8c0-6.2-4.5-11-10.3-11c-5.8,0-10.4,4.9-10.4,11
	C181.7,58.5,186.4,63.3,192.4,63.3z"/>
<path class="st0" d="M210.3,147.2c-8.7-0.6-8.7-2.5-8.7-10.4c0-1.2,0-2.4-0.1-3.7V81.3c0-0.7-0.3-1.3-0.8-1.7
	c-0.5-0.4-1.1-0.6-1.8-0.5l-23.2,5c-1,0.2-1.7,1.1-1.7,2.2v3.2c0,0.6,0.2,1.2,0.7,1.6c0.4,0.4,1,0.6,1.6,0.6
	c1.9-0.1,7.8-0.4,8.4,1.9c0.1,0.5,0.5,3.2,0.5,17.4l0,25.4c-0.1,8.8-0.1,10.2-8.6,10.8c-1.1,0.1-2,1.1-2,2.2v3.2
	c0,0.6,0.2,1.2,0.6,1.6c0.4,0.4,1,0.9,1.5,0.6c3-0.1,6-0.2,9-0.3c3-0.1,6-0.2,8.9-0.3c2.9,0.1,5.5,0.2,8,0.3
	c2.4,0.1,4.8,0.2,7.3,0.3c0,0,0,0,0.1,0c0.6,0,1.1-0.2,1.5-0.6c0.4-0.4,0.6-1,0.6-1.6v-3.2C212.3,148.3,211.4,147.3,210.3,147.2z"/>
<path class="st0" d="M260.6,111.8c-1.6-0.8-3.2-1.6-4.8-2.5l-0.5-0.3c-5.6-3.3-12-7-12-13.8c0-4.6,4.4-8,8.4-8c8,0,11,6.9,13.8,15.2
	c0.3,0.9,1.1,1.5,2,1.5h3.1c1.2,0,2.1-1,2.1-2.2l0.3-20.2c0-0.6-0.2-1.2-0.6-1.6c-0.4-0.4-0.9-0.7-1.5-0.7H269
	c-0.6,0-1.2,0.3-1.6,0.8l-2,2.5c-4.3-2.1-9.6-3.5-14.4-3.5c-11.9,0-21.2,9.5-21.2,21.6c0,12.6,11.8,19,19.6,23.2
	c0.9,0.5,1.9,1,2.9,1.4c5.9,2.9,11.5,5.7,11.5,14.1c0,6.7-5.6,9.1-10.8,9.1c-8.3,0-14-6.3-17-18.8c-0.2-1-1.1-1.7-2.1-1.7h-3.1
	c-0.6,0-1.1,0.2-1.5,0.7s-0.6,1-0.6,1.6l0.6,23.1c0,1.2,1,2.2,2.1,2.2h1.5c0.6,0,1.2-0.3,1.6-0.8l2.6-3.1c4.6,3.2,10.6,5,16.6,5
	c14,0,24.4-9.9,24.8-23.5C278.8,121.1,269.5,116.4,260.6,111.8z"/>
<path class="st0" d="M130,110.6c-1.4-0.9-3.2-0.6-4.2,0.8c-8.2,11.3-15.7,18.8-22.3,22.5c-6.5,3.6-14.2,5.4-22.9,5.4
	c-10-0.1-18.9-2.5-26.6-7.2c-7.6-4.7-13.4-11.5-17.2-20.3c-3.9-9-5.8-19.8-5.7-32.1c0.1-15.1,2.3-27.8,6.5-37.8
	c4.1-9.8,9.8-17,16.8-21.3c7.1-4.4,15.1-6.6,23.9-6.6c10.5,0.1,19.5,3.1,26.9,9c7.4,6,13.3,16,17.3,29.7c0.4,1.3,1.6,2.2,2.9,2.2
	l3.2,0c0.9,0,1.7-0.3,2.2-1c0.6-0.6,0.9-1.4,0.8-2.3l-3-48.2c-0.1-1.6-1.4-2.9-3.1-2.9l-3.7,0c-1.4,0-2.7,1-3,2.4
	c-0.6,2.8-1.7,4.9-3,6.3c-0.8,0.8-1.7,1.1-2.8,1.1c0,0-1.2,0-4.9-2c-10.3-5.3-21-8-31.6-8c-13.7-0.1-26.4,3.3-38,10
	c-11.6,6.7-20.8,16.3-27.5,28.6C4.6,51,1.2,64.6,1.1,79.2C1,97.3,6,113.3,15.9,126.8c13.3,18.2,32.5,27.6,56.9,27.7
	c13.5,0.1,25.5-3,35.4-9c9.9-6.1,18.7-15.7,26.1-28.7c0.8-1.4,0.4-3.2-1-4.1L130,110.6z"/>
</svg>
